<svg width="32" height="32" viewBox="0 0 32 32" fill="none" xmlns="http://www.w3.org/2000/svg">
<path d="M26.2632 10.4737C27.5194 10.4737 28.7243 9.97463 29.6126 9.0863C30.5009 8.19797 31 6.99313 31 5.73684C31 4.48055 30.5009 3.27572 29.6126 2.38739C28.7243 1.49906 27.5194 1 26.2632 1C25.0069 1 23.802 1.49906 22.9137 2.38739C22.0254 3.27572 21.5263 4.48055 21.5263 5.73684C21.5263 6.99313 22.0254 8.19797 22.9137 9.0863C23.802 9.97463 25.0069 10.4737 26.2632 10.4737Z" fill="#FDBE43"/>
<path d="M29.4211 16.7895V21.5263C29.4211 24.0389 28.4229 26.4486 26.6463 28.2252C24.8696 30.0019 22.4599 31 19.9474 31H10.4737C7.96111 31 5.55144 30.0019 3.77478 28.2252C1.99812 26.4486 1 24.0389 1 21.5263V12.0526C1 9.54005 1.99812 7.13039 3.77478 5.35373C5.55144 3.57707 7.96111 2.57895 10.4737 2.57895H15.2105M26.2632 10.4737C27.5194 10.4737 28.7243 9.97463 29.6126 9.0863C30.5009 8.19797 31 6.99313 31 5.73684C31 4.48055 30.5009 3.27572 29.6126 2.38739C28.7243 1.49906 27.5194 1 26.2632 1C25.0069 1 23.802 1.49906 22.9137 2.38739C22.0254 3.27572 21.5263 4.48055 21.5263 5.73684C21.5263 6.99313 22.0254 8.19797 22.9137 9.0863C23.802 9.97463 25.0069 10.4737 26.2632 10.4737Z" stroke="black" stroke-width="1.5" stroke-linecap="round" stroke-linejoin="round"/>
</svg>
